<?xml version="1.0" encoding="UTF-8" standalone="no"?>
<!-- Created with Inkscape (http://www.inkscape.org/) -->

<svg
   xmlns:dc="http://purl.org/dc/elements/1.1/"
   xmlns:cc="http://creativecommons.org/ns#"
   xmlns:rdf="http://www.w3.org/1999/02/22-rdf-syntax-ns#"
   xmlns:svg="http://www.w3.org/2000/svg"
   xmlns="http://www.w3.org/2000/svg"
   xmlns:sodipodi="http://sodipodi.sourceforge.net/DTD/sodipodi-0.dtd"
   xmlns:inkscape="http://www.inkscape.org/namespaces/inkscape"
   width="200"
   height="200"
   viewBox="0 0 52.916666 52.916668"
   version="1.1"
   id="svg8"
   inkscape:version="0.92.2 (5c3e80d, 2017-08-06)"
   sodipodi:docname="logo.svg">
  <defs
     id="defs2" />
  <sodipodi:namedview
     id="base"
     pagecolor="#ffffff"
     bordercolor="#666666"
     borderopacity="1.0"
     inkscape:pageopacity="0.0"
     inkscape:pageshadow="2"
     inkscape:zoom="3.9597979"
     inkscape:cx="-2.5697286"
     inkscape:cy="97.908858"
     inkscape:document-units="px"
     inkscape:current-layer="layer1"
     showgrid="false"
     units="px"
     inkscape:window-width="3840"
     inkscape:window-height="2096"
     inkscape:window-x="0"
     inkscape:window-y="27"
     inkscape:window-maximized="1" />
  <metadata
     id="metadata5">
    <rdf:RDF>
      <cc:Work
         rdf:about="">
        <dc:format>image/svg+xml</dc:format>
        <dc:type
           rdf:resource="http://purl.org/dc/dcmitype/StillImage" />
        <dc:title></dc:title>
      </cc:Work>
    </rdf:RDF>
  </metadata>
  <g
     inkscape:label="Layer 1"
     inkscape:groupmode="layer"
     id="layer1"
     transform="translate(0,-244.08332)">
    <text
       xml:space="preserve"
       style="font-style:normal;font-variant:normal;font-weight:normal;font-stretch:normal;font-size:2.20003366px;line-height:1.25;font-family:'Trade Winds';-inkscape-font-specification:'Trade Winds';letter-spacing:0px;word-spacing:0px;fill:#6988c7;fill-opacity:1;stroke:none;stroke-width:0.05500084"
       x="10.047181"
       y="266.45215"
       id="text817"><tspan
         sodipodi:role="line"
         id="tspan815"
         x="10.047181"
         y="268.23376"
         style="fill:#6988c7;fill-opacity:1;stroke-width:0.05500084" /></text>
    <path
       style="opacity:1;vector-effect:none;fill:#6988c7;fill-opacity:1;stroke:none;stroke-width:0.06545673px;stroke-linecap:butt;stroke-linejoin:miter;stroke-miterlimit:4;stroke-dasharray:none;stroke-dashoffset:0;stroke-opacity:1"
       d="m 26.254803,245.15111 a 25.390574,25.390574 0 0 0 -25.3905652,25.39056 25.390574,25.390574 0 0 0 25.3905652,25.39057 25.390574,25.390574 0 0 0 15.713323,-5.48136 c 0.0063,0.01 0.01218,0.0201 0.01854,0.03 2.57873,4.02958 6.358866,5.41859 10.018973,5.41859 0,-1.64242 0.04679,-10.13727 0.04679,-13.60567 -1.287968,0 -2.067183,-1.24479 -2.341103,-2.08566 A 25.390574,25.390574 0 0 0 51.645363,270.54163 25.390574,25.390574 0 0 0 26.2548,245.15107 Z m 0,13.9722 a 11.418408,11.418408 0 0 1 11.418364,11.41836 11.418408,11.418408 0 0 1 -11.418364,11.41837 11.418408,11.418408 0 0 1 -11.418365,-11.41837 11.418408,11.418408 0 0 1 11.418365,-11.41836 z"
       id="path829"
       inkscape:connector-curvature="0" />
    <path
       style="opacity:1;vector-effect:none;fill:#7799dd;fill-opacity:1;stroke:none;stroke-width:0.06545673px;stroke-linecap:butt;stroke-linejoin:miter;stroke-miterlimit:4;stroke-dasharray:none;stroke-dashoffset:0;stroke-opacity:1"
       d="m 25.71601,247.23196 c -12.230434,-0.008 -23.2781238,11.26211 -22.7893488,23.53194 0.01191,10.84498 8.5257048,21.21695 19.3581568,22.74388 7.233509,1.26658 15.017045,-1.25214 20.42962,-6.20546 1.049088,3.23522 3.932058,5.6671 7.199777,6.37598 -0.09002,-3.33041 0.359786,-6.74672 -0.189607,-10.00937 -2.28165,-1.40825 -2.41868,-4.78638 -1.011776,-6.86319 3.476366,-11.39942 -3.672221,-25.13747 -15.324675,-28.4278 -2.444971,-0.79091 -5.074784,-1.1796 -7.672147,-1.14598 z m 0.820953,9.74018 c 8.203069,0.006 15.10538,8.79642 12.911934,16.76457 -1.766066,7.42493 -10.629734,12.51192 -17.829317,9.51714 -6.89803,-2.44217 -11.075799,-11.17955 -7.811441,-17.92277 2.133693,-4.94013 7.280107,-8.53535 12.728824,-8.35894 z"
       id="path829-5"
       inkscape:connector-curvature="0" />
  </g>
</svg>
